<svg id="visual" viewBox="0 0 900 600" width="900" height="600" xmlns="http://www.w3.org/2000/svg" xmlns:xlink="http://www.w3.org/1999/xlink" version="1.1"><path d="M0 363L21.5 367.2C43 371.3 86 379.7 128.8 378.8C171.7 378 214.3 368 257.2 369.2C300 370.3 343 382.7 385.8 391C428.7 399.3 471.3 403.7 514.2 400.3C557 397 600 386 642.8 389C685.7 392 728.3 409 771.2 418C814 427 857 428 878.5 428.5L900 429L900 601L878.5 601C857 601 814 601 771.2 601C728.3 601 685.7 601 642.8 601C600 601 557 601 514.2 601C471.3 601 428.7 601 385.8 601C343 601 300 601 257.2 601C214.3 601 171.7 601 128.8 601C86 601 43 601 21.5 601L0 601Z" fill="#720b9b"></path><path d="M0 457L21.5 448.5C43 440 86 423 128.8 416.2C171.7 409.3 214.3 412.7 257.2 424.3C300 436 343 456 385.8 466.3C428.7 476.7 471.3 477.3 514.2 473.2C557 469 600 460 642.8 453C685.7 446 728.3 441 771.2 438C814 435 857 434 878.5 433.5L900 433L900 601L878.5 601C857 601 814 601 771.2 601C728.3 601 685.7 601 642.8 601C600 601 557 601 514.2 601C471.3 601 428.7 601 385.8 601C343 601 300 601 257.2 601C214.3 601 171.7 601 128.8 601C86 601 43 601 21.5 601L0 601Z" fill="#3a2687"></path><path d="M0 443L21.5 442.8C43 442.7 86 442.3 128.8 452.7C171.7 463 214.3 484 257.2 493C300 502 343 499 385.8 492.5C428.7 486 471.3 476 514.2 477C557 478 600 490 642.8 495.3C685.7 500.7 728.3 499.3 771.2 493.8C814 488.3 857 478.7 878.5 473.8L900 469L900 601L878.5 601C857 601 814 601 771.2 601C728.3 601 685.7 601 642.8 601C600 601 557 601 514.2 601C471.3 601 428.7 601 385.8 601C343 601 300 601 257.2 601C214.3 601 171.7 601 128.8 601C86 601 43 601 21.5 601L0 601Z" fill="#002769"></path><path d="M0 513L21.5 513.8C43 514.7 86 516.3 128.8 513.3C171.7 510.3 214.3 502.7 257.2 499.3C300 496 343 497 385.8 501.5C428.7 506 471.3 514 514.2 521.2C557 528.3 600 534.7 642.8 533C685.7 531.3 728.3 521.7 771.2 516.5C814 511.3 857 510.7 878.5 510.3L900 510L900 601L878.5 601C857 601 814 601 771.2 601C728.3 601 685.7 601 642.8 601C600 601 557 601 514.2 601C471.3 601 428.7 601 385.8 601C343 601 300 601 257.2 601C214.3 601 171.7 601 128.8 601C86 601 43 601 21.5 601L0 601Z" fill="#001f45"></path><path d="M0 561L21.5 555.3C43 549.7 86 538.3 128.8 535.8C171.7 533.3 214.3 539.7 257.2 546.7C300 553.7 343 561.3 385.8 565.2C428.7 569 471.3 569 514.2 565C557 561 600 553 642.8 546.2C685.7 539.3 728.3 533.7 771.2 534.2C814 534.7 857 541.3 878.5 544.7L900 548L900 601L878.5 601C857 601 814 601 771.2 601C728.3 601 685.7 601 642.8 601C600 601 557 601 514.2 601C471.3 601 428.7 601 385.8 601C343 601 300 601 257.2 601C214.3 601 171.7 601 128.8 601C86 601 43 601 21.5 601L0 601Z" fill="#001220"></path></svg>