<svg id="visual" viewBox="0 0 960 300" width="960" height="300" xmlns="http://www.w3.org/2000/svg" xmlns:xlink="http://www.w3.org/1999/xlink" version="1.1"><path d="M0 163L17.8 153.3C35.7 143.7 71.3 124.3 106.8 110C142.3 95.7 177.7 86.3 213.2 91C248.7 95.7 284.3 114.3 320 127.3C355.7 140.3 391.3 147.7 426.8 149.8C462.3 152 497.7 149 533.2 143.2C568.7 137.3 604.3 128.7 640 117.5C675.7 106.3 711.3 92.7 746.8 97.7C782.3 102.7 817.7 126.3 853.2 139.5C888.7 152.7 924.3 155.3 942.2 156.7L960 158L960 0L942.2 0C924.3 0 888.7 0 853.2 0C817.7 0 782.3 0 746.8 0C711.3 0 675.7 0 640 0C604.3 0 568.7 0 533.2 0C497.7 0 462.3 0 426.8 0C391.3 0 355.7 0 320 0C284.3 0 248.7 0 213.2 0C177.7 0 142.3 0 106.8 0C71.3 0 35.7 0 17.8 0L0 0Z" fill="#720b9b"></path><path d="M0 108L17.8 111.7C35.7 115.3 71.3 122.7 106.8 128.5C142.3 134.3 177.7 138.7 213.2 128C248.7 117.3 284.3 91.7 320 85.5C355.7 79.3 391.3 92.7 426.8 104.7C462.3 116.7 497.7 127.3 533.2 119.8C568.7 112.3 604.3 86.7 640 87.7C675.7 88.7 711.3 116.3 746.8 126.7C782.3 137 817.7 130 853.2 124.5C888.7 119 924.3 115 942.2 113L960 111L960 0L942.2 0C924.3 0 888.7 0 853.2 0C817.7 0 782.3 0 746.8 0C711.3 0 675.7 0 640 0C604.3 0 568.7 0 533.2 0C497.7 0 462.3 0 426.8 0C391.3 0 355.7 0 320 0C284.3 0 248.7 0 213.2 0C177.7 0 142.3 0 106.8 0C71.3 0 35.7 0 17.8 0L0 0Z" fill="#3a2687"></path><path d="M0 102L17.8 94.3C35.7 86.7 71.3 71.3 106.8 66.7C142.3 62 177.7 68 213.2 72.5C248.7 77 284.3 80 320 76.5C355.7 73 391.3 63 426.8 63.7C462.3 64.3 497.7 75.7 533.2 85.5C568.7 95.3 604.3 103.7 640 96.8C675.7 90 711.3 68 746.8 68.8C782.3 69.7 817.7 93.3 853.2 95.2C888.7 97 924.3 77 942.2 67L960 57L960 0L942.2 0C924.3 0 888.7 0 853.2 0C817.7 0 782.3 0 746.8 0C711.3 0 675.7 0 640 0C604.3 0 568.7 0 533.2 0C497.7 0 462.3 0 426.8 0C391.3 0 355.7 0 320 0C284.3 0 248.7 0 213.2 0C177.7 0 142.3 0 106.8 0C71.3 0 35.7 0 17.8 0L0 0Z" fill="#002769"></path><path d="M0 48L17.8 47.8C35.7 47.7 71.3 47.3 106.8 52.7C142.3 58 177.7 69 213.2 74.8C248.7 80.7 284.3 81.3 320 79.3C355.7 77.3 391.3 72.7 426.8 68.2C462.3 63.7 497.7 59.3 533.2 51.3C568.7 43.3 604.3 31.7 640 26.7C675.7 21.7 711.3 23.3 746.8 30.5C782.3 37.7 817.7 50.3 853.2 58.3C888.7 66.3 924.3 69.7 942.2 71.3L960 73L960 0L942.2 0C924.3 0 888.7 0 853.2 0C817.7 0 782.3 0 746.8 0C711.3 0 675.7 0 640 0C604.3 0 568.7 0 533.2 0C497.7 0 462.3 0 426.8 0C391.3 0 355.7 0 320 0C284.3 0 248.7 0 213.2 0C177.7 0 142.3 0 106.8 0C71.3 0 35.7 0 17.8 0L0 0Z" fill="#001f45"></path><path d="M0 19L17.8 19.2C35.7 19.3 71.3 19.7 106.8 17.2C142.3 14.7 177.7 9.3 213.2 12.2C248.7 15 284.3 26 320 33.7C355.7 41.3 391.3 45.7 426.8 42.7C462.3 39.7 497.7 29.3 533.2 21.8C568.7 14.3 604.3 9.7 640 10C675.7 10.3 711.3 15.7 746.8 23.5C782.3 31.3 817.7 41.7 853.2 45.7C888.7 49.7 924.3 47.3 942.2 46.2L960 45L960 0L942.2 0C924.3 0 888.7 0 853.2 0C817.7 0 782.3 0 746.8 0C711.3 0 675.7 0 640 0C604.3 0 568.7 0 533.2 0C497.7 0 462.3 0 426.8 0C391.3 0 355.7 0 320 0C284.3 0 248.7 0 213.2 0C177.7 0 142.3 0 106.8 0C71.3 0 35.7 0 17.8 0L0 0Z" fill="#001220"></path></svg>