<svg id="visual" viewBox="0 0 960 300" width="960" height="300" xmlns="http://www.w3.org/2000/svg" xmlns:xlink="http://www.w3.org/1999/xlink" version="1.1"><path d="M0 135L17.8 144.7C35.7 154.3 71.3 173.7 106.8 188C142.3 202.3 177.7 211.7 213.2 207C248.7 202.3 284.3 183.7 320 170.7C355.7 157.7 391.3 150.3 426.8 148.2C462.3 146 497.7 149 533.2 154.8C568.7 160.7 604.3 169.3 640 180.5C675.7 191.7 711.3 205.3 746.8 200.3C782.3 195.3 817.7 171.7 853.2 158.5C888.7 145.3 924.3 142.7 942.2 141.3L960 140L960 301L942.2 301C924.3 301 888.7 301 853.2 301C817.7 301 782.3 301 746.8 301C711.3 301 675.7 301 640 301C604.3 301 568.7 301 533.2 301C497.7 301 462.3 301 426.8 301C391.3 301 355.7 301 320 301C284.3 301 248.7 301 213.2 301C177.7 301 142.3 301 106.8 301C71.3 301 35.7 301 17.8 301L0 301Z" fill="#720b9b"></path><path d="M0 190L17.8 186.3C35.7 182.7 71.3 175.3 106.8 169.5C142.3 163.7 177.7 159.3 213.2 170C248.7 180.7 284.3 206.3 320 212.5C355.7 218.7 391.3 205.3 426.8 193.3C462.3 181.3 497.7 170.7 533.2 178.2C568.7 185.7 604.3 211.3 640 210.3C675.7 209.3 711.3 181.7 746.8 171.3C782.3 161 817.7 168 853.2 173.5C888.7 179 924.3 183 942.2 185L960 187L960 301L942.2 301C924.3 301 888.7 301 853.2 301C817.7 301 782.3 301 746.8 301C711.3 301 675.7 301 640 301C604.3 301 568.7 301 533.2 301C497.7 301 462.3 301 426.8 301C391.3 301 355.7 301 320 301C284.3 301 248.7 301 213.2 301C177.7 301 142.3 301 106.8 301C71.3 301 35.7 301 17.8 301L0 301Z" fill="#3a2687"></path><path d="M0 196L17.8 203.7C35.7 211.3 71.3 226.7 106.8 231.3C142.3 236 177.7 230 213.2 225.5C248.7 221 284.3 218 320 221.5C355.7 225 391.3 235 426.8 234.3C462.3 233.7 497.7 222.3 533.2 212.5C568.7 202.7 604.3 194.3 640 201.2C675.7 208 711.3 230 746.8 229.2C782.3 228.3 817.7 204.7 853.2 202.8C888.7 201 924.3 221 942.2 231L960 241L960 301L942.2 301C924.3 301 888.7 301 853.2 301C817.7 301 782.3 301 746.8 301C711.3 301 675.7 301 640 301C604.3 301 568.7 301 533.2 301C497.7 301 462.3 301 426.8 301C391.3 301 355.7 301 320 301C284.3 301 248.7 301 213.2 301C177.7 301 142.3 301 106.8 301C71.3 301 35.7 301 17.8 301L0 301Z" fill="#002769"></path><path d="M0 250L17.8 250.2C35.7 250.3 71.3 250.7 106.8 245.3C142.3 240 177.7 229 213.2 223.2C248.7 217.3 284.3 216.7 320 218.7C355.7 220.7 391.3 225.3 426.8 229.8C462.3 234.3 497.7 238.7 533.2 246.7C568.7 254.7 604.3 266.3 640 271.3C675.7 276.3 711.3 274.7 746.8 267.5C782.3 260.3 817.7 247.7 853.2 239.7C888.7 231.7 924.3 228.3 942.2 226.7L960 225L960 301L942.2 301C924.3 301 888.7 301 853.2 301C817.7 301 782.3 301 746.8 301C711.3 301 675.7 301 640 301C604.3 301 568.7 301 533.2 301C497.7 301 462.3 301 426.8 301C391.3 301 355.7 301 320 301C284.3 301 248.7 301 213.2 301C177.7 301 142.3 301 106.8 301C71.3 301 35.7 301 17.8 301L0 301Z" fill="#001f45"></path><path d="M0 279L17.8 278.8C35.7 278.7 71.3 278.3 106.8 280.8C142.3 283.3 177.7 288.7 213.2 285.8C248.7 283 284.3 272 320 264.3C355.7 256.7 391.3 252.3 426.8 255.3C462.3 258.3 497.7 268.7 533.2 276.2C568.7 283.7 604.3 288.3 640 288C675.7 287.7 711.3 282.3 746.8 274.5C782.3 266.7 817.7 256.3 853.2 252.3C888.7 248.3 924.3 250.7 942.2 251.8L960 253L960 301L942.2 301C924.3 301 888.7 301 853.2 301C817.7 301 782.3 301 746.8 301C711.3 301 675.7 301 640 301C604.3 301 568.7 301 533.2 301C497.7 301 462.3 301 426.8 301C391.3 301 355.7 301 320 301C284.3 301 248.7 301 213.2 301C177.7 301 142.3 301 106.8 301C71.3 301 35.7 301 17.8 301L0 301Z" fill="#001220"></path></svg>